<?xml version="1.0" standalone="no"?>
<!DOCTYPE svg PUBLIC "-//W3C//DTD SVG 20010904//EN"
 "http://www.w3.org/TR/2001/REC-SVG-20010904/DTD/svg10.dtd">
<svg version="1.0" xmlns="http://www.w3.org/2000/svg"
 width="700.000000pt" height="700.000000pt" viewBox="0 0 700.000000 700.000000"
 preserveAspectRatio="xMidYMid meet">
<metadata>
Created by potrace 1.14, written by Peter Selinger 2001-2017
</metadata>
<g transform="translate(0.000000,700.000000) scale(0.100000,-0.100000)"
fill="#000000" stroke="none">
<path d="M4328 6994 c-2 -1 -23 -5 -47 -9 -169 -25 -344 -173 -407 -343 -10
-26 -20 -51 -24 -55 -4 -4 -38 -3 -76 3 -38 6 -80 13 -94 15 -157 24 -202 -10
-225 -175 -4 -25 -22 -130 -40 -235 -18 -104 -39 -225 -46 -268 -11 -72 -14
-78 -33 -73 -12 2 -48 8 -81 11 -33 4 -71 9 -85 12 -14 4 -221 7 -460 9 -439
3 -497 0 -665 -37 -420 -91 -799 -339 -1057 -690 -46 -63 -158 -243 -158 -255
0 -2 -11 -27 -25 -56 -34 -74 -65 -154 -82 -213 -25 -88 -51 -199 -57 -245 -3
-25 -8 -63 -12 -85 -10 -71 -11 -209 -2 -236 5 -14 22 -39 39 -55 l30 -29
1020 0 1019 0 0 -40 c0 -111 10 -524 13 -550 15 -117 20 -149 33 -225 30 -165
100 -412 149 -525 8 -16 29 -67 49 -112 159 -370 459 -759 789 -1025 103 -82
296 -213 380 -258 l47 -25 0 -381 0 -381 -243 0 c-134 0 -261 -3 -282 -7 -151
-29 -239 -198 -177 -338 42 -97 111 -132 191 -98 59 24 83 102 52 164 l-17 33
335 -2 c324 -2 338 -3 386 -24 28 -12 66 -37 85 -55 74 -70 111 -80 175 -50
45 21 70 70 62 125 -5 35 -15 52 -54 90 -64 61 -132 104 -207 129 l-61 20 0
319 c0 176 3 323 6 326 6 5 59 -11 114 -36 76 -33 352 -107 465 -124 19 -3 60
-10 90 -15 120 -20 171 -22 631 -27 433 -5 480 -4 512 12 44 21 64 50 70 103
6 48 -5 67 -90 150 -308 303 -506 680 -579 1097 -24 136 -25 159 -28 600 -2
226 -7 446 -10 490 -45 550 -255 1073 -609 1515 -80 99 -228 256 -311 328 -21
18 -36 38 -33 45 3 7 102 149 220 317 119 168 217 316 219 330 6 42 -9 84 -44
117 -32 29 -198 156 -225 172 -11 6 -10 16 6 55 77 178 64 368 -34 521 -98
151 -252 240 -433 249 -39 2 -73 2 -74 0z"/>
</g>
</svg>
